HIERARCHY
ROOT Hips
{
  OFFSET -213.699 104.721 0.752556
  CHANNELS 6 Xposition Yposition Zposition Zrotation Xrotation Yrotation
  JOINT RightUpLeg
  {
    OFFSET -8.9458 -8.66707 0.101652
    CHANNELS 3 Zrotation Xrotation Yrotation
    JOINT RightLeg
    {
      OFFSET 0 -44.4227 1.3727
      CHANNELS 3 Zrotation Xrotation Yrotation
      JOINT RightFoot
      {
        OFFSET 0.253549 -42.0924 -1.46059
        CHANNELS 3 Zrotation Xrotation Yrotation
        JOINT RightToes
        {
          OFFSET 0.04 -4.41509 8.4991
          CHANNELS 3 Zrotation Xrotation Yrotation
          End Site
          {
            OFFSET -0.08 -0.137448 9.77979
          }
        }
      }
    }
  }
  JOINT Spine
  {
    OFFSET 0 11.8905 0
    CHANNELS 3 Zrotation Xrotation Yrotation
    JOINT Spine1
    {
      OFFSET 0 25.6574 0.127663
      CHANNELS 3 Zrotation Xrotation Yrotation
      JOINT HEad
      {
        OFFSET 0 8.73416 0.011341
        CHANNELS 3 Zrotation Xrotation Yrotation
        End Site
        {
          OFFSET -0.29 12.7742 2.51395
        }
      }
      JOINT LeftShoulder1
      {
        OFFSET 8.99 -0.362252 -0.22
        CHANNELS 3 Zrotation Xrotation Yrotation
        JOINT LeftArm
        {
          OFFSET 10.2827 -0.00337999 0.322123
          CHANNELS 3 Zrotation Xrotation Yrotation
          JOINT LeftForeArm
          {
            OFFSET 26.2597 0.099144 -1.42434
            CHANNELS 3 Zrotation Xrotation Yrotation
            JOINT LeftHand
            {
              OFFSET 22.0902 0.085362 1.02216
              CHANNELS 3 Zrotation Xrotation Yrotation
              End Site
              {
                OFFSET 13.419 -0.6 1.50291
              }
            }
          }
        }
      }
      JOINT RightShoulder
      {
        OFFSET -8.99 -0.362252 -0.22
        CHANNELS 3 Zrotation Xrotation Yrotation
        JOINT RightArm
        {
          OFFSET -10.2827 -0.00338 0.322123
          CHANNELS 3 Zrotation Xrotation Yrotation
          JOINT RightForeArm
          {
            OFFSET -26.364 0.099144 -1.42434
            CHANNELS 3 Zrotation Xrotation Yrotation
            JOINT RightHand
            {
              OFFSET -22.0324 0.085362 1.02216
              CHANNELS 3 Zrotation Xrotation Yrotation
              End Site
              {
                OFFSET -13.3284 -0.6 1.50291
              }
            }
          }
        }
      }
    }
  }
  JOINT LeftUpLeg
  {
    OFFSET 8.9458 -8.66707 0.101652
    CHANNELS 3 Zrotation Xrotation Yrotation
    JOINT LeftLeg
    {
      OFFSET 0 -44.4227 1.3727
      CHANNELS 3 Zrotation Xrotation Yrotation
      JOINT LeftFoot
      {
        OFFSET -0.253549 -42.0924 -1.46059
        CHANNELS 3 Zrotation Xrotation Yrotation
        JOINT LeftToes
        {
          OFFSET -0.04 -4.41509 8.4991
          CHANNELS 3 Zrotation Xrotation Yrotation
          End Site
          {
            OFFSET 0.08 -0.047448 9.77979
          }
        }
      }
    }
  }
}
MOTION
Frames:	16
Frame Time:	0.0333333
198.682 101.853 -0.261803 -2.236 0.351558 65.4347 -0.968646 -13.2246 -2.92306 1.20912 15.4437 -23.8022 -2.26556 -4.1198 -0.0742905 0.0462048 0.000530889 0.662642 -7.90638 6.45075 -1.9799 5.39236 3.08634 -3.47724 5.95774 -5.63043 -10.6202 -29.0037 -2.31483 10.096 -83.5311 -40.5251 -48.5604 -165.732 76.7311 168.558 8.54938 9.00702 -7.96997 30.3535 -1.28173 -7.61805 51.6149 -15.1133 19.9931 7.37352 52.2488 9.17955 -0.378001 9.93334 3.69752 -0.4243 -4.88308 3.30034 0.240983 10.555 36.487 0.388507 -5.18853 0.00706662 -1.33341e-009 8.75222e-006 -1.46831e-008 
199.399 101.866 -0.370719 -2.26489 0.234913 61.1729 -0.334424 -12.7437 -2.70838 2.55558 13.6941 -32.4945 -5.4592 -2.90238 0.0883212 0.0462048 0.000530889 0.662642 -7.93291 6.03876 -2.10562 5.76838 3.19119 -3.67474 6.24715 -4.53811 -12.5783 -29.2175 -2.38406 10.2527 -83.6865 -41.2906 -48.6962 -167.193 75.7605 170.674 8.53227 9.02377 -7.74633 30.1228 -1.24853 -7.55238 51.1938 -14.2639 19.3903 7.24019 51.5083 9.57085 -0.413141 9.9302 3.61319 -0.373305 -4.06932 3.69547 -0.0816733 10.6113 40.2473 0.14076 -5.69318 0.0175184 -1.33341e-009 8.75222e-006 -1.46831e-008 
200.152 101.755 -0.336584 -2.298 0.248633 56.928 0.238952 -12.3969 -1.9759 2.99714 12.7488 -37.096 -6.60112 -1.73864 0.206904 0.0462048 0.000530889 0.662642 -7.81119 5.45259 -2.24544 5.84873 3.22744 -3.80185 6.68238 -3.3499 -14.754 -29.3236 -2.46212 10.4528 -83.5688 -42.0473 -48.2917 -167.954 75.126 171.808 8.57744 9.0196 -7.73121 30.0643 -1.25091 -7.56538 50.8791 -14.2174 18.9203 7.60753 51.6668 9.2135 -0.743756 9.90427 3.48374 -0.162056 -3.8342 4.51239 -0.876171 11.7795 44.1195 0.310714 -6.69473 0.0231848 -1.33341e-009 8.75222e-006 -1.46831e-008 
200.924 101.502 -0.165919 -2.06262 0.0417815 52.5575 0.886631 -12.1653 -1.2421 2.4559 13.4913 -35.6111 -5.16355 -1.54646 0.146583 0.0462048 0.000530889 0.662642 -7.2993 5.14519 -2.33093 5.53854 3.27072 -3.799 7.245 -2.37925 -17.1676 -29.4663 -2.55314 10.6805 -82.965 -42.7159 -47.3545 -168.128 74.8581 171.939 8.67549 9.00117 -7.83983 30.2862 -1.32177 -7.73543 50.7977 -15.3901 18.9603 8.48406 53.24 7.96843 -0.994861 9.88501 3.37817 0.480342 -3.71669 5.95728 -2.18876 14.2619 46.9289 -1.56822 -8.23562 0.0193785 -1.33341e-009 8.75222e-006 -1.46831e-008 
201.66 101.124 0.139374 -1.48224 -0.640198 47.9757 1.80641 -11.91 -0.489675 1.35878 15.5103 -30.8189 -3.38483 -2.29004 0.0227474 0.0462048 0.000530889 0.662642 -6.63657 5.42631 -2.27836 5.15333 3.41135 -3.6756 7.8206 -1.70958 -19.7138 -29.7702 -2.67263 10.9531 -82.1568 -43.202 -46.3 -168.06 74.7444 171.605 8.57808 9.00906 -7.88941 30.4912 -1.39194 -7.90409 51.4334 -18.0354 19.5733 9.60852 56.2027 5.96995 -0.841562 9.89655 3.33941 1.77184 -3.75474 12.1638 -2.83948 18.9473 44.277 -5.62743 -9.87253 -0.0642829 -1.33341e-009 8.75222e-006 -1.46831e-008 
202.266 100.708 0.500184 -1.01485 -1.55606 43.6019 2.95697 -11.739 0.186801 0.322262 17.6641 -26.3831 -2.97295 -3.18521 -0.0265982 0.0462048 0.000530889 0.662642 -6.2185 6.07945 -2.24981 5.15781 3.45172 -3.67276 8.40247 -1.03858 -22.2341 -30.0156 -2.7416 11.0941 -81.604 -43.55 -45.2933 -168.036 74.6218 171.375 8.4192 9.02834 -7.87489 30.3705 -1.37807 -7.88013 52.6583 -20.8928 20.2615 10.349 58.892 4.14486 -0.485482 9.92236 3.14444 3.84579 -4.9817 24.9355 0.0402591 26.5587 34.4466 -7.06301 -10.1932 -0.110967 -1.33341e-009 8.75222e-006 -1.46831e-008 
202.77 100.326 0.765563 -1.00875 -2.29159 39.7308 3.9533 -11.884 0.784396 -0.208131 19.5093 -23.1641 -2.96925 -3.90997 -0.0491547 0.0462048 0.000530889 0.662642 -5.97624 6.81856 -2.40194 5.63298 3.07253 -3.92068 9.08886 -0.120349 -24.8961 -30.0586 -2.72139 11.0293 -81.5112 -43.8069 -44.2209 -168.286 74.2588 171.585 8.54512 9.0145 -7.86478 30.0964 -1.32554 -7.76805 53.4463 -22.4457 20.5502 10.4425 59.6649 3.33218 -0.413677 9.9254 2.63089 6.41736 -7.83285 28.9628 1.87803 35.3583 31.6589 -2.63795 -8.49242 0.000758154 -1.33341e-009 8.75222e-006 -1.46831e-008 
203.391 100.009 0.874231 -1.11349 -2.84437 35.8103 4.42435 -12.0949 1.18182 -0.489417 21.2361 -19.3912 -2.02115 -4.72656 -0.0994733 0.0462048 0.000530889 0.662642 -5.67859 7.69224 -2.57475 6.16351 2.42331 -4.16283 9.93338 0.763485 -27.7788 -30.1369 -2.72674 11.0279 -81.7935 -43.8701 -43.2505 -168.88 73.4493 172.247 8.77972 8.98956 -7.83409 30.0694 -1.32552 -7.771 53.3119 -22.8767 20.6934 10.5533 59.0894 3.00108 -0.708576 9.90349 2.15413 8.0247 -10.7801 27.0212 1.61044 42.8703 28.6421 3.87532 -7.10719 0.0203975 -1.33341e-009 8.75222e-006 -1.46831e-008 
204.317 99.8406 0.929496 -0.805102 -3.40399 31.1296 4.30484 -11.7861 1.88455 -0.826852 22.5688 -14.7757 -0.645882 -5.50057 -0.145601 0.0462048 0.000530889 0.662642 -5.54904 8.64643 -2.53844 6.30113 2.08044 -4.13891 10.8213 1.14805 -30.3433 -30.4281 -2.8308 11.2527 -82.1957 -43.6528 -42.6242 -169.503 72.4515 172.895 8.71572 9.0003 -7.78388 30.2297 -1.34868 -7.81626 52.9114 -23.1264 21.1023 10.7689 58.6351 2.65769 -0.983667 9.88573 2.16528 7.848 -12.2067 23.7336 1.3888 47.3143 18.4697 6.08327 -8.03734 0.0498028 -1.33341e-009 8.75222e-006 -1.46831e-008 
205.495 99.8039 1.00346 -0.399095 -3.87023 25.8557 3.97072 -11.2314 3.21083 -1.15954 23.2234 -10.5792 0.183786 -5.90999 -0.16333 0.0462048 0.000530889 0.662642 -5.52369 9.24982 -2.41068 6.12507 2.20109 -3.97886 11.4785 1.08434 -32.0156 -30.7751 -2.94221 11.4824 -82.4395 -43.2238 -42.0784 -169.787 71.8299 172.971 8.57113 9.01649 -7.7895 30.114 -1.32534 -7.76519 52.9893 -23.5064 21.6278 10.5051 58.7336 2.72377 -1.06998 9.87888 2.53966 6.49633 -12.5362 18.7641 0.855615 48.1159 6.15877 2.95284 -10.1294 0.104771 -1.33341e-009 8.75222e-006 -1.46831e-008 
206.769 99.7871 1.03117 -0.560622 -3.85759 20.4773 3.81125 -11.286 4.65766 -1.43233 23.3314 -6.80981 0.910692 -5.98308 -0.174256 0.0462048 0.000530889 0.662642 -5.15074 9.23194 -2.38189 6.00008 2.29373 -3.87334 11.7194 1.05825 -32.8127 -31.0523 -2.9998 11.578 -82.4837 -42.698 -41.1854 -169.691 71.7372 172.386 8.76281 8.99115 -7.83911 29.6223 -1.3017 -7.75733 53.2719 -23.509 21.9146 9.6718 58.6323 3.62761 -1.17162 9.86897 2.86463 4.79107 -13.1974 11.6919 0.378553 46.4131 -1.0711 -1.28515 -11.877 0.00964381 -1.33341e-009 8.75222e-006 -1.46831e-008 
208.107 99.7799 0.993355 -1.11054 -3.31807 14.7292 3.73208 -12.0077 6.16381 -1.66229 23.123 -2.49651 2.54836 -5.93555 -0.198979 0.0462048 0.000530889 0.662642 -4.5721 8.85835 -2.27917 5.90065 2.11119 -3.68209 11.7014 1.26612 -32.8582 -31.3181 -3.08101 11.7372 -82.5055 -42.1157 -40.0343 -169.404 71.8885 171.465 8.96292 8.96292 -7.9144 29.1633 -1.32718 -7.88359 53.1228 -22.7951 21.9892 8.76022 57.8384 5.04171 -1.27984 9.86442 3.09002 2.90679 -14.0413 2.99326 0.304868 43.5267 -1.60888 -2.33035 -13.6165 -0.0501506 -1.33341e-009 8.75222e-006 -1.46831e-008 
209.583 99.819 0.996419 -1.36041 -2.84997 8.09441 3.4689 -12.6289 8.3249 -1.88943 22.8016 2.40586 5.0604 -5.91828 -0.238082 0.0462048 0.000530889 0.662642 -4.25981 8.61105 -1.94122 5.4787 2.05143 -3.24066 11.8083 1.45755 -32.0315 -31.5214 -3.20898 12.0324 -82.511 -41.4945 -39.0353 -168.95 72.2314 170.339 8.73482 8.97611 -8.11121 28.956 -1.31378 -7.87073 52.7072 -21.6551 22.0825 7.92125 56.7682 6.51078 -1.20847 9.86893 3.42193 0.953993 -13.7487 -6.31304 0.384602 39.6697 -0.350873 -0.390741 -15.1822 0.0512357 -1.33341e-009 8.75222e-006 -1.46831e-008 
211.239 99.8895 1.12006 -1.16786 -2.95015 0.78841 2.94134 -12.6621 11.1121 -2.18853 22.3631 7.19111 7.82042 -5.97093 -0.276894 0.0462048 0.000530889 0.662642 -4.30065 8.76515 -1.55974 4.61532 2.35427 -2.71266 12.1957 1.50492 -30.4998 -31.5241 -3.28896 12.2436 -82.3266 -40.8602 -38.3884 -168.131 72.9322 168.806 8.55558 8.97949 -8.37383 28.7494 -1.20225 -7.57606 52.6658 -20.3978 22.2862 7.02998 55.8154 7.92618 -1.17745 9.87044 3.8305 -0.898263 -12.0068 -16.2423 0.330387 35.2168 -1.8691 1.31004 -15.5066 0.169363 -1.33341e-009 8.75222e-006 -1.46831e-008 
213.043 99.8146 1.2952 -1.138 -3.31637 -6.69389 2.53986 -12.8267 13.966 -2.53535 22.2458 11.7365 11.0365 -6.3554 -0.288303 0.0462048 0.000530889 0.662642 -4.20557 9.201 -1.31632 3.69703 2.70954 -2.28999 12.6144 1.58226 -28.8984 -31.4073 -3.30133 12.3034 -82.0096 -40.233 -38.108 -167.026 73.7922 167.026 8.90183 8.93461 -8.42729 28.3734 -1.09516 -7.30966 52.9908 -18.6885 22.6177 6.28852 54.3346 9.21778 -1.53466 9.84107 4.07053 -2.11607 -10.1553 -25.4827 0.0984384 31.8164 -6.28335 1.23243 -14.7432 0.152914 -1.33341e-009 8.75222e-006 -1.46831e-008 
214.895 99.6106 1.43128 -1.45329 -3.34446 -14.432 2.5012 -13.7473 17.186 -2.59651 22.385 16.2789 15.2551 -6.98104 -0.258475 0.0462048 0.000530889 0.662642 -4.15141 9.58755 -1.07079 3.08505 2.88576 -1.91916 12.7704 1.73208 -27.543 -31.3248 -3.31911 12.37 -81.7616 -39.7045 -38.1509 -166.041 74.4594 165.557 9.13389 8.91655 -8.2865 28.0097 -1.05616 -7.23485 53.1985 -16.2613 23.1193 5.92849 51.6837 10.2898 -2.04142 9.79987 4.06192 -2.29051 -9.26415 -28.8948 -0.100918 30.2025 -11.0233 0.825528 -13.9934 0.115705 -1.33341e-009 8.75222e-006 -1.46831e-008 
